<svg width="44" height="44" viewBox="0 0 44 44" fill="none" xmlns="http://www.w3.org/2000/svg">
<rect x="0.5" y="0.5" width="43" height="43" rx="21.5" fill="#EDF2F7" stroke="#CBD5E0"/>
<path fill-rule="evenodd" clip-rule="evenodd" d="M24.6246 21.8992C25.9034 21.6121 27.1107 21.8829 27.6681 22.008L27.6681 22.008C27.8735 22.0541 27.9906 22.0803 27.9906 22.0516C27.9314 21.7356 27.8862 21.3898 27.8389 21.0273L27.8389 21.0273C27.4864 18.3288 27.0139 14.7119 19.7407 15.6522C12.3167 16.6119 12.5856 20.5073 12.8051 23.6878V23.6878C12.8295 24.0416 12.8533 24.3866 12.8658 24.7177C12.8661 25.0112 14.6483 24.5516 15.91 24.2263C16.0284 24.1957 16.1423 24.1664 16.2496 24.1389C16.653 24.0358 17.4199 23.8218 18.3537 23.5613L18.3538 23.5612C20.3162 23.0137 23.0154 22.2605 24.6246 21.8992ZM27.9728 23.0481C29.6411 23.5023 32.9683 25.0255 32.9683 25.0255C32.9683 25.0255 31.5567 24.5712 30.0173 24.5712C27.9961 24.5712 26.1871 25.8866 24.4232 27.1692C22.8273 28.3296 21.2684 29.4631 19.6228 29.5712C17.7749 29.6621 13.9852 26.1166 14.1135 25.662C14.6528 25.6023 16.4998 25.0535 18.4852 24.4635L18.4852 24.4635C20.2795 23.9303 22.1868 23.3636 23.3443 23.0939C25.7825 22.5257 26.3046 22.5938 27.9728 23.0481ZM27.7409 26.071C27.6161 25.7634 30.4909 25.148 32.3659 25.7634C34.241 26.3787 33.366 27.5064 32.7409 27.5064C32.1159 27.5064 27.8658 26.3785 27.7409 26.071Z" fill="black" fill-opacity="0.24"/>
</svg>
