<svg width="14" height="11" viewBox="0 0 14 11" fill="none" xmlns="http://www.w3.org/2000/svg">
<path fill-rule="evenodd" clip-rule="evenodd" d="M1 0.5C0.723858 0.5 0.5 0.723858 0.5 1V2C0.5 2.27614 0.723858 2.5 1 2.5H2C2.27614 2.5 2.5 2.27614 2.5 2V1C2.5 0.723858 2.27614 0.5 2 0.5H1ZM2 1H1V2H2V1Z" fill="#718096"/>
<path d="M4 1.5C4 1.22386 4.22386 1 4.5 1H13.5C13.7761 1 14 1.22386 14 1.5C14 1.77614 13.7761 2 13.5 2H4.5C4.22386 2 4 1.77614 4 1.5Z" fill="#718096"/>
<path d="M4.5 5C4.22386 5 4 5.22386 4 5.5C4 5.77614 4.22386 6 4.5 6H13.5C13.7761 6 14 5.77614 14 5.5C14 5.22386 13.7761 5 13.5 5H4.5Z" fill="#718096"/>
<path d="M4.5 9C4.22386 9 4 9.22386 4 9.5C4 9.77614 4.22386 10 4.5 10H13.5C13.7761 10 14 9.77614 14 9.5C14 9.22386 13.7761 9 13.5 9H4.5Z" fill="#718096"/>
<path fill-rule="evenodd" clip-rule="evenodd" d="M0.5 5C0.5 4.72386 0.723858 4.5 1 4.5H2C2.27614 4.5 2.5 4.72386 2.5 5V6C2.5 6.27614 2.27614 6.5 2 6.5H1C0.723858 6.5 0.5 6.27614 0.5 6V5ZM1 5H2V6H1V5Z" fill="#718096"/>
<path fill-rule="evenodd" clip-rule="evenodd" d="M1 8.5C0.723858 8.5 0.5 8.72386 0.5 9V10C0.5 10.2761 0.723858 10.5 1 10.5H2C2.27614 10.5 2.5 10.2761 2.5 10V9C2.5 8.72386 2.27614 8.5 2 8.5H1ZM2 9H1V10H2V9Z" fill="#718096"/>
</svg>
