<svg width="16" height="8" viewBox="0 0 16 8" fill="none" xmlns="http://www.w3.org/2000/svg">
<path d="M2.87282 7.29748V0.141646H1.69853L0 1.37885V2.51644L1.64086 1.33691H1.69853V7.29748H2.87282Z" fill="#718096"/>
<path d="M6.08639 2.20714C6.08639 2.19666 6.08639 2.15996 6.08639 2.14423C6.08639 1.52563 6.52675 0.975183 7.28166 0.975183C7.95792 0.975183 8.45595 1.41554 8.45595 2.08132C8.45595 2.70517 8.03656 3.18222 7.64862 3.60685L4.99074 6.55307V7.29748H9.77178V6.30668H6.64209V6.23853L8.40877 4.25167C9.05882 3.52822 9.64597 2.9201 9.64597 1.98172C9.64597 0.849366 8.72331 0.000101616 7.30787 0.000101616C5.73516 0.000101616 4.9488 1.0643 4.9488 2.14947V2.20714H6.08639Z" fill="#718096"/>
<path d="M12.6446 4.08915H13.431C14.254 4.08915 14.8045 4.57145 14.8097 5.26869C14.8202 5.97641 14.2593 6.48492 13.389 6.47967C12.6184 6.47443 12.0627 6.06028 12.0103 5.52556H10.9146C10.9566 6.57928 11.853 7.44427 13.3785 7.44427C14.8569 7.44427 16.0207 6.60549 15.9997 5.30014C15.9788 4.1573 15.0771 3.64879 14.448 3.58588V3.52298C14.9827 3.43386 15.7953 2.86244 15.7743 1.84542C15.7481 0.7917 14.8412 -0.0103831 13.4152 0.000101616C11.9159 0.00534399 11.0981 0.88082 11.0666 1.89784H12.1833C12.2147 1.39982 12.6813 0.954213 13.389 0.954213C14.0915 0.954213 14.5948 1.38933 14.5948 2.02366C14.6 2.66323 14.0915 3.1298 13.3943 3.1298H12.6446V4.08915Z" fill="#718096"/>
</svg>
