<svg width="12" height="16" viewBox="0 0 12 16" fill="none" xmlns="http://www.w3.org/2000/svg">
<path d="M7.46487 10H10C11.1046 10 12 10.8954 12 12C12 13.1046 11.1046 14 10 14H7.46487C7.80521 13.4117 8 12.7286 8 12C8 11.2714 7.80521 10.5883 7.46487 10Z" fill="#718096"/>
<path d="M4 15C5.65685 15 7 13.6569 7 12C7 10.3431 5.65685 9 4 9C2.34315 9 1 10.3431 1 12C1 13.6569 2.34315 15 4 15ZM4 16C1.79086 16 0 14.2091 0 12C0 9.79086 1.79086 8 4 8C6.20914 8 8 9.79086 8 12C8 14.2091 6.20914 16 4 16Z" fill="#718096"/>
<path d="M4.53513 6C4.35609 5.69049 4.21733 5.35477 4.12602 5H2C1.44772 5 1 4.55228 1 4C1 3.44772 1.44772 3 2 3H4.12602C4.21733 2.64523 4.35609 2.30951 4.53513 2H2C0.895431 2 0 2.89543 0 4C0 5.10457 0.89543 6 2 6H4.53513Z" fill="#718096"/>
<path d="M12 4C12 6.20914 10.2091 8 8 8C5.79086 8 4 6.20914 4 4C4 1.79086 5.79086 0 8 0C10.2091 0 12 1.79086 12 4Z" fill="#718096"/>
</svg>
