<svg width="13" height="14" viewBox="0 0 13 14" fill="none" xmlns="http://www.w3.org/2000/svg">
<path d="M10.375 0H4.25C3.2835 0 2.5 0.783502 2.5 1.75C1.5335 1.75 0.75 2.5335 0.75 3.5V12.25C0.75 13.2165 1.5335 14 2.5 14H8.625C9.5915 14 10.375 13.2165 10.375 12.25C11.3415 12.25 12.125 11.4665 12.125 10.5V1.75C12.125 0.783502 11.3415 0 10.375 0ZM10.375 11.375V3.5C10.375 2.5335 9.5915 1.75 8.625 1.75H3.375C3.375 1.26675 3.76675 0.875 4.25 0.875H10.375C10.8582 0.875 11.25 1.26675 11.25 1.75V10.5C11.25 10.9832 10.8582 11.375 10.375 11.375ZM1.625 3.5C1.625 3.01675 2.01675 2.625 2.5 2.625H8.625C9.10825 2.625 9.5 3.01675 9.5 3.5V12.25C9.5 12.7332 9.10825 13.125 8.625 13.125H2.5C2.01675 13.125 1.625 12.7332 1.625 12.25V3.5Z" fill="black" fill-opacity="0.8"/>
</svg>
