<svg width="14" height="14" viewBox="0 0 14 14" fill="none" xmlns="http://www.w3.org/2000/svg">
<path d="M7.45059 0.891593C7.30101 0.88056 7.15072 0.875 7 0.875V0C7.17224 0 7.344 0.00635424 7.51495 0.0189631L7.45059 0.891593ZM9.20436 1.28542C8.92372 1.17717 8.63548 1.08973 8.342 1.02382L8.53372 0.170084C8.86912 0.245405 9.19854 0.345332 9.51927 0.469048L9.20436 1.28542ZM10.4029 1.90725C10.2776 1.82352 10.1495 1.74464 10.019 1.67071L10.4503 0.909389C10.5994 0.993881 10.7458 1.08402 10.889 1.17971C11.0322 1.2754 11.1715 1.37611 11.3066 1.48157L10.7683 2.17138C10.6501 2.0791 10.5282 1.99098 10.4029 1.90725ZM12.0077 3.47318C11.8345 3.22725 11.6434 2.99441 11.436 2.77656L12.0697 2.17322C12.3068 2.42219 12.5252 2.68829 12.7231 2.96934L12.0077 3.47318ZM12.6588 4.65606C12.6011 4.51682 12.5384 4.3801 12.471 4.24613L13.2526 3.85272C13.3296 4.00584 13.4012 4.16209 13.4672 4.32122C13.5331 4.48034 13.5929 4.64146 13.6467 4.80422L12.8159 5.0787C12.7688 4.93629 12.7164 4.79531 12.6588 4.65606ZM13.1232 6.84969C13.1158 6.54899 13.0863 6.24922 13.0348 5.95286L13.8969 5.80327C13.9557 6.14197 13.9895 6.48455 13.9979 6.82821L13.1232 6.84969ZM13.0073 8.19493C13.0367 8.04711 13.0606 7.89862 13.0789 7.74976L13.9474 7.85688C13.9264 8.027 13.8991 8.1967 13.8655 8.36563C13.8319 8.53456 13.7922 8.70178 13.7464 8.86699L12.9031 8.63362C12.9431 8.48907 12.9779 8.34275 13.0073 8.19493ZM12.1747 10.2769C12.3357 10.0227 12.4776 9.75709 12.5995 9.4821L13.3995 9.83669C13.2602 10.151 13.0979 10.4546 12.914 10.745L12.1747 10.2769ZM11.331 11.331C11.4376 11.2245 11.5399 11.1143 11.6379 11.0007L12.3005 11.5722C12.1885 11.702 12.0715 11.828 11.9497 11.9497L11.331 11.331Z" fill="black" fill-opacity="0.8"/>
<path d="M7 0.875C5.99274 0.875 5.00102 1.12341 4.1127 1.59823C3.22437 2.07305 2.46686 2.75962 1.90725 3.59713C1.34765 4.43464 1.00322 5.39723 0.904495 6.39964C0.805766 7.40206 0.955777 8.41335 1.34124 9.34394C1.7267 10.2745 2.33572 11.0957 3.11434 11.7347C3.89297 12.3737 4.81716 12.8108 5.80507 13.0073C6.79298 13.2038 7.81411 13.1537 8.77799 12.8613C9.74188 12.5689 10.6188 12.0433 11.331 11.331L11.9497 11.9497C11.1358 12.7637 10.1336 13.3644 9.03199 13.6986C7.93041 14.0327 6.76341 14.0901 5.63437 13.8655C4.50533 13.6409 3.4491 13.1414 2.55925 12.4111C1.66939 11.6808 0.973374 10.7423 0.532845 9.67878C0.0923164 8.61525 -0.0791244 7.45949 0.0337087 6.31388C0.146542 5.16827 0.540166 4.06816 1.17971 3.11101C1.81926 2.15386 2.68499 1.3692 3.70022 0.826551C4.71545 0.2839 5.84885 0 7 0V0.875Z" fill="black" fill-opacity="0.8"/>
<path d="M6.5625 2.625C6.80413 2.625 7 2.82088 7 3.0625V7.62111L9.84206 9.24514C10.0519 9.36502 10.1247 9.63227 10.0049 9.84206C9.88498 10.0519 9.61773 10.1247 9.40794 10.0049L6.34544 8.25486C6.20913 8.17696 6.125 8.032 6.125 7.875V3.0625C6.125 2.82088 6.32088 2.625 6.5625 2.625Z" fill="black" fill-opacity="0.8"/>
</svg>
