<svg width="14" height="16" viewBox="0 0 14 16" fill="none" xmlns="http://www.w3.org/2000/svg">
<path d="M3.5 9C1.567 9 0 10.567 0 12.5C0 14.433 1.567 16 3.5 16H10.5C12.433 16 14 14.433 14 12.5C14 10.567 12.433 9 10.5 9H3.5ZM10.5 15C9.11929 15 8 13.8807 8 12.5C8 11.1193 9.11929 10 10.5 10C11.8807 10 13 11.1193 13 12.5C13 13.8807 11.8807 15 10.5 15Z" fill="currentColor"/>
<path d="M3.5 1C2.11929 1 1 2.11929 1 3.5C1 4.88071 2.11929 6 3.5 6C4.88071 6 6 4.88071 6 3.5C6 2.11929 4.88071 1 3.5 1ZM5.94949 1C6.59777 1.63526 7 2.52066 7 3.5C7 4.47934 6.59777 5.36474 5.94949 6H10.5C11.8807 6 13 4.88071 13 3.5C13 2.11929 11.8807 1 10.5 1H5.94949ZM3.5 0H10.5C12.433 0 14 1.567 14 3.5C14 5.433 12.433 7 10.5 7H3.5C1.567 7 0 5.433 0 3.5C0 1.567 1.567 0 3.5 0Z" fill="currentColor"/>
</svg>
