<svg width="178" height="177" viewBox="0 0 178 177" fill="none" xmlns="http://www.w3.org/2000/svg">
<path d="M3 113.188C4.50391 115.688 10.2539 117.188 13.25 118.188C10.2539 127.688 9.25391 147.438 15.5 166.938C16.9414 171.438 23.2539 178.438 36.25 170.688C73.0039 144.188 106.504 144.188 142.004 171.688C148.004 175.688 155.504 173.438 158.25 169.688C160.504 167.938 167.504 149.438 165.754 116.688C168.004 116.688 174 114.688 174 114.688C174 114.688 175.25 114.688 175.25 111.188C169.254 40.6875 154.254 8.9375 96.0039 6.4375C97.0078 4.9375 96.0039 2.6875 92.5 2.1875C91.7461 1.93728 84.7539 1.93772 83.7539 2.1875C83.2539 2.1875 79.7539 2.4375 80.25 5.9375C33.7539 8.6875 6.50391 27.9375 3 113.188Z" fill="#242B3D" stroke="#192333" stroke-width="4"/>
<path d="M12.75 117.681C12.75 117.681 18.25 119.688 26.7495 117.681C62.5 102.937 110.5 103.439 147.75 116.681C151 117.689 161.5 118.431 165 116.681" stroke="#192333" stroke-width="4"/>
<path d="M80 6.1875C84 7.4375 93.5 7.1875 96.75 6.1875" stroke="#192333" stroke-width="3"/>
<path d="M51.9756 55.2773V61.7783C51.9756 62.9131 51.9346 63.9932 51.8525 65.0186C51.7842 66.0439 51.7295 66.7686 51.6885 67.1924H52.0166C52.5088 66.3994 53.0898 65.7568 53.7598 65.2646C54.4434 64.7725 55.1953 64.4102 56.0156 64.1777C56.8359 63.9453 57.7178 63.8291 58.6611 63.8291C60.3154 63.8291 61.7578 64.123 62.9883 64.7109C64.2188 65.2852 65.1758 66.1943 65.8594 67.4385C66.543 68.6689 66.8848 70.2686 66.8848 72.2373V87.1875H60.6299V73.7959C60.6299 72.1553 60.3291 70.918 59.7275 70.084C59.126 69.25 58.1963 68.833 56.9385 68.833C55.6807 68.833 54.6895 69.127 53.9648 69.7148C53.2402 70.2891 52.7275 71.1436 52.4268 72.2783C52.126 73.3994 51.9756 74.7734 51.9756 76.4004V87.1875H45.7207V55.2773H51.9756ZM82.7168 63.7881C85.793 63.7881 88.1514 64.458 89.792 65.7979C91.4326 67.1377 92.2529 69.1748 92.2529 71.9092V87.1875H87.8848L86.6748 84.0703H86.5107C85.8545 84.8906 85.1846 85.5605 84.501 86.0801C83.8174 86.5996 83.0312 86.9824 82.1426 87.2285C81.2539 87.4746 80.1738 87.5977 78.9023 87.5977C77.5488 87.5977 76.332 87.3379 75.252 86.8184C74.1855 86.2988 73.3447 85.5059 72.7295 84.4395C72.1143 83.3594 71.8066 81.9922 71.8066 80.3379C71.8066 77.9043 72.6611 76.1133 74.3701 74.9648C76.0791 73.8027 78.6426 73.1602 82.0605 73.0371L86.0391 72.9141V71.9092C86.0391 70.7061 85.7246 69.8242 85.0957 69.2637C84.4668 68.7031 83.5918 68.4229 82.4707 68.4229C81.3633 68.4229 80.2764 68.5801 79.21 68.8945C78.1436 69.209 77.0771 69.6055 76.0107 70.084L73.9395 65.8594C75.1562 65.2168 76.5166 64.7109 78.0205 64.3418C79.5381 63.9727 81.1035 63.7881 82.7168 63.7881ZM86.0391 76.5645L83.6191 76.6465C81.5957 76.7012 80.1875 77.0635 79.3945 77.7334C78.6152 78.4033 78.2256 79.2852 78.2256 80.3789C78.2256 81.3359 78.5059 82.0195 79.0664 82.4297C79.627 82.8262 80.3584 83.0244 81.2607 83.0244C82.6006 83.0244 83.7285 82.6279 84.6445 81.835C85.5742 81.042 86.0391 79.9141 86.0391 78.4512V76.5645ZM108.372 82.6143C109.056 82.6143 109.719 82.5459 110.361 82.4092C111.018 82.2725 111.667 82.1016 112.31 81.8965V86.5518C111.64 86.8525 110.806 87.0986 109.808 87.29C108.823 87.4951 107.743 87.5977 106.567 87.5977C105.2 87.5977 103.97 87.3789 102.876 86.9414C101.796 86.4902 100.941 85.7178 100.312 84.624C99.6973 83.5166 99.3896 81.9785 99.3896 80.0098V68.9561H96.3955V66.3105L99.8408 64.2188L101.646 59.3789H105.645V64.2598H112.063V68.9561H105.645V80.0098C105.645 80.8848 105.891 81.541 106.383 81.9785C106.889 82.4023 107.552 82.6143 108.372 82.6143ZM132.961 80.3789C132.961 81.9375 132.592 83.2568 131.854 84.3369C131.129 85.4033 130.042 86.2168 128.593 86.7773C127.144 87.3242 125.339 87.5977 123.179 87.5977C121.579 87.5977 120.205 87.4951 119.057 87.29C117.922 87.085 116.773 86.7432 115.611 86.2646V81.0967C116.855 81.6572 118.188 82.1221 119.61 82.4912C121.046 82.8467 122.304 83.0244 123.384 83.0244C124.601 83.0244 125.469 82.8467 125.988 82.4912C126.521 82.1221 126.788 81.6436 126.788 81.0557C126.788 80.6729 126.679 80.3311 126.46 80.0303C126.255 79.7158 125.804 79.3672 125.106 78.9844C124.409 78.5879 123.315 78.0752 121.825 77.4463C120.39 76.8447 119.207 76.2363 118.277 75.6211C117.361 75.0059 116.678 74.2812 116.227 73.4473C115.789 72.5996 115.57 71.5264 115.57 70.2275C115.57 68.1084 116.391 66.5156 118.031 65.4492C119.686 64.3691 121.894 63.8291 124.655 63.8291C126.077 63.8291 127.431 63.9727 128.716 64.2598C130.015 64.5469 131.348 65.0049 132.715 65.6338L130.828 70.1455C129.693 69.6533 128.62 69.25 127.608 68.9355C126.61 68.6211 125.592 68.4639 124.553 68.4639C123.637 68.4639 122.946 68.5869 122.481 68.833C122.017 69.0791 121.784 69.4551 121.784 69.9609C121.784 70.3301 121.9 70.6582 122.133 70.9453C122.379 71.2324 122.844 71.5537 123.527 71.9092C124.225 72.251 125.243 72.6953 126.583 73.2422C127.882 73.7754 129.01 74.3359 129.967 74.9238C130.924 75.498 131.662 76.2158 132.182 77.0771C132.701 77.9248 132.961 79.0254 132.961 80.3789Z" fill="#E9E8F0"/>
</svg>
