<svg width="16" height="16" viewBox="0 0 16 16" fill="none" xmlns="http://www.w3.org/2000/svg">
<path fill-rule="evenodd" clip-rule="evenodd" d="M4 1H12C12.5523 1 13 1.44772 13 2V9.58634C12.7144 8.81849 11.9748 8.27148 11.1075 8.27148C9.99262 8.27148 9.08887 9.17524 9.08887 10.2901C9.08887 11.4049 9.99262 12.3087 11.1075 12.3087C11.9748 12.3087 12.7144 11.7617 13 10.9938V13.251C12.4913 13.0836 11.8683 12.9805 11.1079 12.9805C10.4169 12.9805 9.83941 13.0656 9.35799 13.2068C8.52718 12.464 7.16954 11.8555 5.00055 11.8555C4.23738 11.8555 3.57467 11.9308 3 12.0608V10.0801C3.50598 10.6028 4.21504 10.9277 5 10.9277C6.53712 10.9277 7.7832 9.68165 7.7832 8.14453C7.7832 6.60741 6.53712 5.36133 5 5.36133C4.21504 5.36133 3.50598 5.68629 3 6.20901V2C3 1.44772 3.44772 1 4 1ZM2 2C2 0.895431 2.89543 0 4 0H12C13.1046 0 14 0.895431 14 2V14C14 15.1046 13.1046 16 12 16H4C2.89543 16 2 15.1046 2 14V2ZM6.5 2C6.22386 2 6 2.22386 6 2.5C6 2.77614 6.22386 3 6.5 3H9.5C9.77614 3 10 2.77614 10 2.5C10 2.22386 9.77614 2 9.5 2H6.5Z"  fill="black" fill-opacity="0.6" />
</svg>
