<svg width="14" height="11" viewBox="0 0 14 11" fill="none" xmlns="http://www.w3.org/2000/svg">
<path fill-rule="evenodd" clip-rule="evenodd" d="M4 9.5C4 9.22386 4.22386 9 4.5 9H13.5C13.7761 9 14 9.22386 14 9.5C14 9.77614 13.7761 10 13.5 10H4.5C4.22386 10 4 9.77614 4 9.5Z" fill="#2D3748"/>
<path fill-rule="evenodd" clip-rule="evenodd" d="M4 5.5C4 5.22386 4.22386 5 4.5 5H13.5C13.7761 5 14 5.22386 14 5.5C14 5.77614 13.7761 6 13.5 6H4.5C4.22386 6 4 5.77614 4 5.5Z" fill="#2D3748"/>
<path fill-rule="evenodd" clip-rule="evenodd" d="M4 1.5C4 1.22386 4.22386 1 4.5 1H13.5C13.7761 1 14 1.22386 14 1.5C14 1.77614 13.7761 2 13.5 2H4.5C4.22386 2 4 1.77614 4 1.5Z" fill="#2D3748"/>
<path fill-rule="evenodd" clip-rule="evenodd" d="M1 2.5C1.55228 2.5 2 2.05228 2 1.5C2 0.947715 1.55228 0.5 1 0.5C0.447715 0.5 0 0.947715 0 1.5C0 2.05228 0.447715 2.5 1 2.5Z" fill="#2D3748"/>
<path fill-rule="evenodd" clip-rule="evenodd" d="M1 6.5C1.55228 6.5 2 6.05228 2 5.5C2 4.94772 1.55228 4.5 1 4.5C0.447715 4.5 0 4.94772 0 5.5C0 6.05228 0.447715 6.5 1 6.5Z" fill="#2D3748"/>
<path fill-rule="evenodd" clip-rule="evenodd" d="M1 10.5C1.55228 10.5 2 10.0523 2 9.5C2 8.94771 1.55228 8.5 1 8.5C0.447715 8.5 0 8.94771 0 9.5C0 10.0523 0.447715 10.5 1 10.5Z" fill="#2D3748"/>
</svg>
