<svg width="28" height="28" viewBox="0 0 28 28" fill="none" xmlns="http://www.w3.org/2000/svg">
<g filter="url(#filter0_d_15573_199207)">
<rect x="2" y="1" width="24" height="24" rx="12" fill="white" shape-rendering="crispEdges"/>
<circle cx="14" cy="13" r="11" stroke="#F687B3" stroke-width="2"/>
<g filter="url(#filter1_di_15573_199207)">
<path d="M5.51472 4.51472C6.62902 3.40042 7.95189 2.5165 9.4078 1.91345C10.8637 1.31039 12.4241 1 14 1C15.5759 1 17.1363 1.31039 18.5922 1.91345C20.0481 2.5165 21.371 3.40042 22.4853 4.51472C23.5996 5.62902 24.4835 6.95189 25.0866 8.4078C25.6896 9.86371 26 11.4241 26 13C26 14.5759 25.6896 16.1363 25.0866 17.5922C24.4835 19.0481 23.5996 20.371 22.4853 21.4853L14 13L5.51472 4.51472Z" fill="#81E6D9"/>
</g>
</g>
<defs>
<filter id="filter0_d_15573_199207" x="0" y="0" width="28" height="28" filterUnits="userSpaceOnUse" color-interpolation-filters="sRGB">
<feFlood flood-opacity="0" result="BackgroundImageFix"/>
<feColorMatrix in="SourceAlpha" type="matrix" values="0 0 0 0 0 0 0 0 0 0 0 0 0 0 0 0 0 0 127 0" result="hardAlpha"/>
<feOffset dy="1"/>
<feGaussianBlur stdDeviation="1"/>
<feComposite in2="hardAlpha" operator="out"/>
<feColorMatrix type="matrix" values="0 0 0 0 0 0 0 0 0 0 0 0 0 0 0 0 0 0 0.05 0"/>
<feBlend mode="normal" in2="BackgroundImageFix" result="effect1_dropShadow_15573_199207"/>
<feBlend mode="normal" in="SourceGraphic" in2="effect1_dropShadow_15573_199207" result="shape"/>
</filter>
<filter id="filter1_di_15573_199207" x="4.51471" y="1" width="21.4853" height="21.4854" filterUnits="userSpaceOnUse" color-interpolation-filters="sRGB">
<feFlood flood-opacity="0" result="BackgroundImageFix"/>
<feColorMatrix in="SourceAlpha" type="matrix" values="0 0 0 0 0 0 0 0 0 0 0 0 0 0 0 0 0 0 127 0" result="hardAlpha"/>
<feOffset dx="-1" dy="1"/>
<feComposite in2="hardAlpha" operator="out"/>
<feColorMatrix type="matrix" values="0 0 0 0 1 0 0 0 0 1 0 0 0 0 1 0 0 0 1 0"/>
<feBlend mode="normal" in2="BackgroundImageFix" result="effect1_dropShadow_15573_199207"/>
<feBlend mode="normal" in="SourceGraphic" in2="effect1_dropShadow_15573_199207" result="shape"/>
<feColorMatrix in="SourceAlpha" type="matrix" values="0 0 0 0 0 0 0 0 0 0 0 0 0 0 0 0 0 0 127 0" result="hardAlpha"/>
<feOffset dx="1" dy="-1"/>
<feComposite in2="hardAlpha" operator="arithmetic" k2="-1" k3="1"/>
<feColorMatrix type="matrix" values="0 0 0 0 1 0 0 0 0 1 0 0 0 0 1 0 0 0 1 0"/>
<feBlend mode="normal" in2="shape" result="effect2_innerShadow_15573_199207"/>
</filter>
</defs>
</svg>
