<svg width="800" height="800" viewBox="0 0 800 800" fill="none" xmlns="http://www.w3.org/2000/svg">
<path d="M609.104 205.576C570.2 187.374 528.603 174.145 485.113 166.613C479.772 176.269 473.532 189.257 469.23 199.589C423 192.636 377.195 192.636 331.815 199.589C327.513 189.257 321.132 176.269 315.743 166.613C272.207 174.145 230.561 187.422 191.657 205.672C113.188 324.249 91.9163 439.882 102.552 553.872C154.597 592.738 205.035 616.348 254.622 631.797C266.865 614.947 277.784 597.035 287.191 578.157C269.275 571.35 252.116 562.949 235.903 553.196C240.204 550.01 244.412 546.678 248.477 543.25C347.366 589.503 454.813 589.503 552.521 543.25C556.634 546.678 560.841 550.01 565.095 553.196C548.834 562.997 531.628 571.398 513.712 578.206C523.119 597.035 533.991 614.996 546.282 631.845C595.916 616.395 646.401 592.786 698.446 553.872C710.925 421.728 677.127 307.158 609.104 205.576ZM300.663 483.769C270.978 483.769 246.633 456.055 246.633 422.307C246.633 388.559 270.458 360.798 300.663 360.798C330.87 360.798 355.214 388.51 354.694 422.307C354.741 456.055 330.87 483.769 300.663 483.769ZM500.335 483.769C470.649 483.769 446.304 456.055 446.304 422.307C446.304 388.559 470.128 360.798 500.335 360.798C530.54 360.798 554.885 388.51 554.365 422.307C554.365 456.055 530.54 483.769 500.335 483.769Z" fill="#5865F2"/>
</svg>
