<svg width="16" height="10" viewBox="0 0 16 10" fill="none" xmlns="http://www.w3.org/2000/svg">
<path d="M9.00037 8C9.62806 7.16434 10 6.12561 10 5C10 3.87439 9.62806 2.83566 9.00037 2H13C14.6569 2 16 3.34315 16 5C16 6.65685 14.6569 8 13 8H9.00037Z" fill="#718096"/>
<path d="M5 9C2.79086 9 1 7.20914 1 5C1 2.79086 2.79086 1 5 1C7.20914 1 9 2.79086 9 5C9 7.20914 7.20914 9 5 9ZM5 10C7.76142 10 10 7.76142 10 5C10 2.23858 7.76142 0 5 0C2.23858 0 0 2.23858 0 5C0 7.76142 2.23858 10 5 10Z" fill="#718096"/>
</svg>
