<svg width="12" height="16" viewBox="0 0 12 16" fill="none" xmlns="http://www.w3.org/2000/svg">
<path d="M8.94326 4H3.05674L3 6H3.5C3.67967 4.90443 3.85579 4.80817 5.19385 4.76454L5.487 4.75485V10.8456C5.487 11.3158 5.38771 11.4273 4.58865 11.5V12H7.41135V11.5C6.60756 11.4273 6.50827 11.3158 6.50827 10.8456V4.75485L6.80615 4.76454C8.14421 4.80817 8.32033 4.90443 8.5 6H9L8.94326 4Z" fill="black" fill-opacity="0.8"/>
<path d="M2 0C0.895431 0 0 0.89543 0 2V14C0 15.1046 0.895431 16 2 16H10C11.1046 16 12 15.1046 12 14V2C12 0.89543 11.1046 0 10 0H2ZM2 1H10C10.5523 1 11 1.44772 11 2V14C11 14.5523 10.5523 15 10 15H2C1.44772 15 1 14.5523 1 14V2C1 1.44772 1.44772 1 2 1Z" fill="black" fill-opacity="0.8"/>
</svg>
